<svg width="50" height="50" viewBox="0 0 50 50" fill="none" xmlns="http://www.w3.org/2000/svg">
<path fill-rule="evenodd" clip-rule="evenodd" d="M25.0001 5.72916C14.3571 5.72916 5.72925 14.357 5.72925 25C5.72925 35.643 14.3571 44.2708 25.0001 44.2708C35.6431 44.2708 44.2709 35.643 44.2709 25C44.2709 14.357 35.6431 5.72916 25.0001 5.72916ZM2.60425 25C2.60425 12.6311 12.6312 2.60416 25.0001 2.60416C37.369 2.60416 47.3959 12.6311 47.3959 25C47.3959 37.3689 37.369 47.3958 25.0001 47.3958C12.6312 47.3958 2.60425 37.3689 2.60425 25Z" fill="#DEDEDE"/>
<path fill-rule="evenodd" clip-rule="evenodd" d="M18.6866 18.6868C19.2968 18.0766 20.2862 18.0766 20.8964 18.6868L24.9999 22.7903L29.1034 18.6868C29.7136 18.0766 30.7029 18.0767 31.3131 18.6868C31.9233 19.297 31.9233 20.2864 31.3131 20.8966L27.2096 25L31.3131 29.1035C31.9233 29.7137 31.9233 30.703 31.3131 31.3132C30.7029 31.9234 29.7136 31.9234 29.1034 31.3132L24.9999 27.2097L20.8964 31.3132C20.2862 31.9234 19.2969 31.9234 18.6867 31.3132C18.0765 30.703 18.0765 29.7137 18.6867 29.1035L22.7902 25L18.6867 20.8965C18.0765 20.2863 18.0765 19.297 18.6866 18.6868Z" fill="#DEDEDE"/>
</svg>
